HIERARCHY
ROOT Hips
{
	OFFSET 0.00000 0.00000 0.00000
	CHANNELS 6 Xposition Yposition Zposition Yrotation Zrotation Xrotation 
	JOINT Lumbar
	{
		OFFSET 0 0 0
		CHANNELS 3 Zrotation Xrotation Yrotation
		JOINT Neck
		{
			OFFSET 0.00 0.2701 0.00
			CHANNELS 3 Zrotation Xrotation Yrotation
			End Site
			{
				OFFSET 0.00 0.1379 0.00
			}
		}
		JOINT RightShoulder
		{
			OFFSET 0.0119 0.2289 0.1181
			CHANNELS 3 Zrotation Xrotation Yrotation
			JOINT RightElbow
			{
				OFFSET 0.00 -0.1475 0.00
				CHANNELS 2 Zrotation Yrotation
				JOINT RightWrist
				{
					OFFSET 0.00 -0.1605 0.00
					CHANNELS 2 Zrotation Xrotation
					End Site
					{
						OFFSET 0.0040 -0.1068 0.0006
					}
				}
			}
		}
		JOINT LeftShoulder
		{
			OFFSET 0.0119 0.2289 -0.1181
			CHANNELS 3 Zrotation Xrotation Yrotation
			JOINT LeftElbow
			{
				OFFSET 0.00 -0.1475 0.00
				CHANNELS 2 Zrotation Yrotation
				JOINT LeftWrist
				{
					OFFSET 0.00 -0.1605 0.00
					CHANNELS 2 Zrotation Xrotation
					End Site
					{
						OFFSET 0.0040 -0.1068 -0.0006
					}
				}
			}
		}
	}
	JOINT RightHip
	{
		OFFSET 0.0316 -0.0424 0.0458
		CHANNELS 3 Zrotation Xrotation Yrotation
		JOINT RightKnee
		{
			OFFSET 0.00 -0.2438 0.00
			CHANNELS 1 Zrotation
			JOINT RightAnkle
			{
				OFFSET 0.00 -0.2449 0.00
				CHANNELS 3 Zrotation Xrotation Yrotation
				End Site
				{
					OFFSET 0.1237 -0.0542 0.0051
				}
			}
		}
	}
	JOINT LeftHip
	{
		OFFSET 0.0316 -0.0424 -0.0458
		CHANNELS 3 Zrotation Xrotation Yrotation
		JOINT LeftKnee
		{
			OFFSET 0.00 -0.2438 0.00
			CHANNELS 1 Zrotation
			JOINT LeftAnkle
			{
				OFFSET 0.00 -0.2449 0.00
				CHANNELS 3 Zrotation Xrotation Yrotation
				End Site
				{
					OFFSET 0.1237 -0.0542 -0.0051
				}
			}
		}
	}
}
MOTION
Frames: 29
Frame Time: 0.02
0 0.57926 -0 184.12109 0 -3.00872 1.75045 1.53614 -8.68649 -32.8613 5.55306 4.21538 -13.68919 -74.1001 -77.65585 20.32605 77.16862 -16.0155 -1.86761 -2.33584 61.60008 70.28291 22.65841 -78.89668 -29.50052 2.6681 -2.38523 2.42577 4.9208 -8.06497 -1.52338 -3.0356 -7.49256 0.10056 4.24906 -2.85235 -8.50599 3.8574 1.25351 -0.44374
-8e-05 0.57926 2e-05 184.11579 0 -3.00759 1.7486 1.53818 -8.69237 -32.87301 5.55546 4.20987 -13.67995 -74.10051 -77.65587 20.31448 77.15449 -15.99918 -1.85949 -2.287 61.59617 70.23575 22.64957 -78.9119 -29.48562 2.65842 -2.39642 2.42195 4.91779 -8.05549 -1.52413 -3.03554 -7.4828 0.08606 4.24789 -2.82981 -8.49362 3.89482 1.25656 -0.4828
-0.00016 0.57927 4e-05 184.11051 0 -3.00645 1.74677 1.54018 -8.69829 -32.88459 5.55788 4.20435 -13.67103 -74.10095 -77.65622 20.30302 77.14025 -15.983 -1.85146 -2.23855 61.59227 70.18908 22.64078 -78.92689 -29.47083 2.64885 -2.40757 2.41812 4.91464 -8.04607 -1.52483 -3.03544 -7.47293 0.07162 4.24669 -2.80753 -8.48135 3.93192 1.25964 -0.52143
-0.00024 0.57927 6e-05 184.10537 0 -3.00523 1.74482 1.54214 -8.70436 -32.89571 5.56038 4.19872 -13.66285 -74.10134 -77.65769 20.29195 77.12517 -15.96711 -1.84373 -2.19072 61.58827 70.14371 22.63197 -78.94088 -29.45611 2.63968 -2.41861 2.41418 4.91086 -8.03681 -1.52538 -3.03512 -7.46255 0.05742 4.24538 -2.78595 -8.46939 3.96821 1.26284 -0.55915
-0.00032 0.57927 8e-05 184.09962 0 -3.00441 1.7433 1.54443 -8.70958 -32.90917 5.56247 4.19364 -13.65023 -74.10175 -77.65299 20.27892 77.11424 -15.94954 -1.83444 -2.13908 61.58464 70.09123 22.62313 -78.95993 -29.44078 2.62848 -2.43014 2.41077 4.91036 -8.02673 -1.52678 -3.03589 -7.45492 0.04211 4.24468 -2.76051 -8.45578 4.00895 1.26538 -0.6022
-0.00039 0.57927 0.0001 184.09509 0 -3.00276 1.74099 1.54596 -8.71661 -32.91774 5.56543 4.18741 -13.64732 -74.10226 -77.66149 20.26998 77.09473 -15.93565 -1.82843 -2.0959 61.58033 70.05398 22.61447 -78.96844 -29.42689 2.62152 -2.44071 2.40628 4.90297 -8.01836 -1.52634 -3.03441 -7.44147 0.02906 4.24269 -2.74336 -8.44569 4.04013 1.26936 -0.63362
-0.00046 0.57927 0.00011 184.09438 0 -2.99866 1.73544 1.54568 -8.72879 -32.91203 5.57072 4.17781 -13.66955 -74.10195 -77.70677 20.27308 77.04832 -15.93106 -1.83204 -2.07282 61.57331 70.05803 22.60496 -78.94533 -29.41553 2.62697 -2.44817 2.39849 4.87525 -8.01494 -1.52115 -3.0261 -7.41115 0.02287 4.23696 -2.74869 -8.4454 4.04585 1.27698 -0.63533
-0.00052 0.57928 0.00013 184.09482 0 -2.99377 1.72929 1.5446 -8.74277 -32.90149 5.5769 4.16708 -13.70186 -74.10189 -77.76534 20.28019 76.99371 -15.93033 -1.83888 -2.05883 61.56578 70.07757 22.59584 -78.91192 -29.40584 2.63661 -2.45476 2.38968 4.84083 -8.01323 -1.51406 -3.01563 -7.37513 0.01884 4.22996 -2.76245 -8.44867 4.04181 1.28611 -0.62491
-0.00058 0.57928 0.00014 184.09448 0 -2.98935 1.72409 1.5437 -8.75587 -32.89366 5.58273 4.15697 -13.73073 -74.10248 -77.81773 20.28493 76.94493 -15.92841 -1.84392 -2.04283 61.55901 70.09057 22.5874 -78.88495 -29.39632 2.64384 -2.46207 2.38155 4.81019 -8.01059 -1.50762 -3.00655 -7.34212 0.01341 4.22364 -2.77265 -8.45025 4.04159 1.29476 -0.61837
-0.00064 0.57928 0.00015 184.0953 0 -2.98444 1.71603 1.54353 -8.76929 -32.88373 5.58836 4.14639 -13.75496 -74.10002 -77.87084 20.2919 76.88749 -15.92418 -1.85037 -2.01799 61.54992 70.1016 22.5754 -78.85097 -29.383 2.65307 -2.46801 2.3725 4.77621 -8.00856 -1.50205 -2.99574 -7.30709 0.00972 4.21688 -2.78179 -8.4521 4.04376 1.30257 -0.61848
-0.00072 0.57928 0.00016 184.09388 0 -2.98038 1.71377 1.54168 -8.78239 -32.87692 5.59455 4.13658 -13.79102 -74.10377 -77.92542 20.29529 76.84589 -15.92558 -1.85465 -2.01358 61.54564 70.12024 22.57083 -78.82861 -29.37782 2.65929 -2.47657 2.36513 4.7479 -8.0057 -1.49427 -2.98801 -7.27522 0.00293 4.21075 -2.795 -8.45428 4.03887 1.31244 -0.60215
-0.00088 0.57927 0.00016 184.08681 0 -2.97879 1.72786 1.53517 -8.79508 -32.88081 5.60283 4.12874 -13.85923 -74.12622 -77.98231 20.28678 76.8523 -15.94242 -1.85202 -2.06449 61.55382 70.15748 22.58742 -78.84564 -29.39615 2.65473 -2.49289 2.36253 4.73407 -7.99977 -1.48041 -2.98944 -7.25098 -0.01304 4.20653 -2.81856 -8.45615 4.01474 1.3282 -0.54104
-0.00106 0.57926 0.00016 184.07733 0 -2.9781 1.74777 1.52704 -8.80724 -32.88782 5.61152 4.12181 -13.93856 -74.15462 -78.03982 20.27469 76.87456 -15.96463 -1.84713 -2.13539 61.56696 70.20155 22.61133 -78.87393 -29.42236 2.64726 -2.5118 2.36168 4.72663 -7.99302 -1.46445 -2.99401 -7.23055 -0.03216 4.20301 -2.8457 -8.45831 3.98423 1.34589 -0.46428
-0.00124 0.57925 0.00015 184.06842 0 -2.97703 1.76489 1.51979 -8.81903 -32.89281 5.6195 4.11477 -14.01162 -74.17921 -78.09625 20.26495 76.88804 -15.98385 -1.84334 -2.19644 61.57851 70.24161 22.63138 -78.8938 -29.44399 2.64209 -2.5293 2.36013 4.71818 -7.98686 -1.44976 -2.99704 -7.21006 -0.04976 4.19927 -2.87041 -8.4606 3.95806 1.36234 -0.39625
-0.00141 0.57924 0.00015 184.06165 0 -2.97582 1.78261 1.51192 -8.83337 -32.90021 5.62963 4.10639 -14.09047 -74.20841 -78.15707 20.25242 76.90772 -16.00557 -1.83932 -2.26119 61.58749 70.28616 22.65369 -78.92681 -29.4698 2.63299 -2.54775 2.35816 4.70174 -7.9798 -1.43376 -3.0005 -7.18249 -0.06769 4.19509 -2.89878 -8.46191 3.92553 1.38035 -0.32092
-0.00159 0.57923 0.00015 184.04997 0 -2.9751 1.80046 1.50493 -8.84234 -32.90337 5.63549 4.10104 -14.15937 -74.22952 -78.20804 20.24464 76.91855 -16.02325 -1.83523 -2.32266 61.60272 70.32261 22.67303 -78.93582 -29.48888 2.63126 -2.56486 2.35747 4.70324 -7.97445 -1.41994 -3.00384 -7.17042 -0.0857 4.192 -2.9203 -8.46526 3.90477 1.39556 -0.25726
-0.00177 0.57922 0.00015 184.02407 0 -2.97561 1.81744 1.50105 -8.83585 -32.89407 5.62824 4.10398 -14.20167 -74.22574 -78.2374 20.25217 76.8995 -16.02883 -1.83134 -2.37199 61.63641 70.33644 22.68229 -78.87125 -29.48653 2.65129 -2.57761 2.36 4.7555 -7.97354 -1.41323 -3.00595 -7.20236 -0.10323 4.19183 -2.92189 -8.47439 3.91891 1.40256 -0.22947
-0.00195 0.57921 0.00015 183.99355 0 -2.97657 1.83432 1.49806 -8.8241 -32.88042 5.61688 4.10993 -14.23292 -74.21379 -78.25578 20.26436 76.87136 -16.03006 -1.82747 -2.41691 61.67576 70.3415 22.68832 -78.78307 -29.47734 2.67872 -2.58894 2.36372 4.82511 -7.97444 -1.4087 -3.00787 -7.24945 -0.12073 4.19271 -2.91649 -8.48551 3.94503 1.40667 -0.21403
-0.00213 0.57919 0.00015 183.9659 0 -2.97728 1.85115 1.49448 -8.81523 -32.86879 5.60822 4.11444 -14.26675 -74.20631 -78.27524 20.27352 76.84843 -16.03299 -1.82367 -2.46266 61.71096 70.34964 22.69592 -78.70874 -29.47186 2.70228 -2.60094 2.3668 4.88494 -7.97481 -1.4028 -3.00996 -7.2882 -0.13823 4.19307 -2.9143 -8.49554 3.96516 1.4121 -0.19311
-0.00231 0.57918 0.00014 183.9348 0 -2.97819 1.86864 1.49162 -8.80429 -32.85711 5.59612 4.11929 -14.31103 -74.19593 -78.31086 20.28633 76.82144 -16.03726 -1.81947 -2.51423 61.75306 70.36204 22.70344 -78.62157 -29.46403 2.72782 -2.61291 2.37036 4.95293 -7.97397 -1.39839 -3.01178 -7.33304 -0.15593 4.19364 -2.91193 -8.50632 3.98732 1.41759 -0.17111
-0.00249 0.57916 0.00014 183.90995 0 -2.97878 1.88461 1.4875 -8.79642 -32.84441 5.59013 4.12413 -14.33111 -74.18945 -78.31068 20.29279 76.80061 -16.03766 -1.81615 -2.55218 61.78198 70.36317 22.71014 -78.55547 -29.45947 2.75114 -2.6246 2.37317 5.00804 -7.97602 -1.39148 -3.0141 -7.36896 -0.17311 4.19398 -2.90844 -8.51605 4.00823 1.42223 -0.15445
-0.00267 0.57915 0.00015 183.9025 0 -2.97851 1.89681 1.47953 -8.79831 -32.83034 5.60247 4.1284 -14.28398 -74.19692 -78.21012 20.27969 76.79828 -16.02812 -1.81515 -2.55508 61.77381 70.33732 22.71645 -78.55269 -29.46456 2.76542 -2.63536 2.37371 5.02254 -7.98624 -1.37668 -3.01771 -7.37472 -0.18922 4.19383 -2.90166 -8.52213 4.02244 1.42517 -0.15021
-0.00285 0.57915 0.00016 183.90168 0 -2.97788 1.90737 1.4703 -8.80349 -32.81533 5.62101 4.13254 -14.21336 -74.20838 -78.07464 20.26025 76.80249 -16.01485 -1.81507 -2.54408 61.75192 70.30013 22.72196 -78.5721 -29.47331 2.77738 -2.64592 2.37341 5.02354 -7.99922 -1.35936 -3.02182 -7.37123 -0.20471 4.19333 -2.89429 -8.52714 4.03509 1.42734 -0.15087
-0.00303 0.57914 0.00016 183.89849 0 -2.97734 1.9184 1.46176 -8.80719 -32.80044 5.63639 4.13661 -14.15557 -74.21713 -77.95795 20.24425 76.80417 -16.00351 -1.81463 -2.53832 61.73596 70.26663 22.7269 -78.58159 -29.48102 2.79122 -2.6569 2.37341 5.03128 -8.01051 -1.34354 -3.02578 -7.37323 -0.22024 4.19276 -2.88847 -8.5328 4.04871 1.42988 -0.14887
-0.00322 0.57913 0.00017 183.89245 0 -2.97714 1.93065 1.45277 -8.81065 -32.7866 5.653 4.14129 -14.08855 -74.22918 -77.82874 20.22594 76.80385 -15.99113 -1.81393 -2.53678 61.72191 70.23854 22.73502 -78.58911 -29.4859 2.80209 -2.66653 2.37383 5.03731 -8.0236 -1.32639 -3.02946 -7.37061 -0.2368 4.19323 -2.87713 -8.53778 4.06163 1.43225 -0.14904
-0.0034 0.57912 0.00018 183.89392 0 -2.97613 1.93992 1.44437 -8.81545 -32.77054 5.66865 4.14467 -14.035 -74.23569 -77.71721 20.21105 76.80917 -15.97996 -1.81402 -2.52343 61.70001 70.19719 22.73716 -78.60686 -29.49757 2.81816 -2.67885 2.3731 5.0432 -8.03369 -1.31127 -3.03381 -7.37488 -0.25103 4.1914 -2.87706 -8.54398 4.07547 1.43483 -0.14579
-0.00357 0.5791 0.00023 183.9152 0 -2.97306 1.94173 1.43812 -8.8232 -32.74735 5.67959 4.1442 -14.0268 -74.22355 -77.66485 20.2061 76.82996 -15.97399 -1.81593 -2.47905 61.66391 70.11697 22.71682 -78.6432 -29.52779 2.85204 -2.69933 2.36999 5.05452 -8.03402 -1.30328 -3.0402 -7.40326 -0.25929 4.18359 -2.90978 -8.55323 4.09222 1.43826 -0.13118
-0.00373 0.57909 0.00029 183.94367 0 -2.96916 1.94051 1.43246 -8.83223 -32.72214 5.68945 4.14246 -14.03238 -74.20611 -77.63089 20.20529 76.85595 -15.96918 -1.81863 -2.42368 61.61938 70.02473 22.692 -78.69021 -29.56463 2.89072 -2.72239 2.36566 5.06574 -8.0314 -1.29724 -3.04719 -7.43834 -0.26516 4.17341 -2.9536 -8.56388 4.10989 1.44195 -0.11301
-0.0039 0.57907 0.00034 183.96845 0 -2.96558 1.94051 1.42638 -8.84063 -32.6988 5.70017 4.14146 -14.03036 -74.19277 -77.58783 20.20289 76.87862 -15.96323 -1.82111 -2.37446 61.5762 69.94141 22.67286 -78.73489 -29.59807 2.92519 -2.74383 2.36152 5.07514 -8.03063 -1.28966 -3.05372 -7.46832 -0.27192 4.16413 -2.99133 -8.57427 4.12705 1.4455 -0.09693
